<svg version="1.1" id="Layer_1" xmlns="http://www.w3.org/2000/svg" xmlns:xlink="http://www.w3.org/1999/xlink" x="0px" y="0px"
	 width="100%" viewBox="0 0 1024 1024" enable-background="new 0 0 1024 1024" xml:space="preserve">
<path fill="#000000" opacity="1.000000" stroke="none" 
	d="
M642.941406,449.037842 
	C621.914062,458.667542 600.322632,464.915100 577.680603,467.419464 
	C577.020081,467.492493 576.348877,467.526337 575.703857,467.672241 
	C571.199219,468.691040 566.542053,469.443787 563.202698,465.397278 
	C559.872681,461.362030 561.463440,456.703857 563.281433,452.657593 
	C578.588928,418.587708 597.558350,386.703003 623.429321,359.609528 
	C646.372070,335.582703 674.884277,321.047058 707.775574,315.649261 
	C721.230042,313.441223 734.792603,312.044220 748.278381,315.736664 
	C751.339600,316.574890 754.345520,317.679810 756.793945,319.751831 
	C760.568298,322.945984 760.398743,327.447083 755.944397,329.411957 
	C730.700500,340.547180 717.406799,362.255646 705.864807,385.510162 
	C691.954834,413.535553 671.913696,435.428284 642.941406,449.037842 
z"/>
<path fill="#000000" opacity="1.000000" stroke="none" 
	d="
M447.428619,433.748840 
	C451.729675,443.962646 454.181091,454.262543 455.817261,464.802399 
	C456.212585,467.348907 455.933502,469.533356 453.866333,471.041382 
	C451.652649,472.656189 449.353668,471.745453 447.367065,470.399017 
	C442.133148,466.851624 436.963837,463.230896 431.354767,460.255768 
	C416.319427,452.280731 400.271088,446.716736 384.523529,440.447083 
	C352.570312,427.725403 322.217834,412.380463 298.426849,386.717194 
	C280.265137,367.126312 266.807953,344.803741 261.229218,318.301971 
	C260.514374,314.906250 259.933014,311.445312 259.728729,307.988647 
	C259.481049,303.797943 259.509216,299.547455 264.394989,297.467255 
	C269.156891,295.439819 272.360779,298.005280 275.425629,301.010376 
	C283.900269,309.319672 293.197601,316.529938 303.294647,322.799255 
	C319.620636,332.936157 337.646667,338.587189 355.965332,343.675903 
	C391.386200,353.515381 418.575439,373.800385 435.564697,406.940186 
	C439.976410,415.545807 443.961609,424.315033 447.428619,433.748840 
z"/>
<path fill="#000000" opacity="1.000000" stroke="none" 
	d="
M542.473816,288.762512 
	C554.672974,326.014496 552.876282,362.343597 538.462524,398.219666 
	C532.559631,412.911926 526.355286,427.422668 517.119812,440.439728 
	C513.282654,445.848114 510.610107,446.018463 506.568939,440.573639 
	C498.870331,430.201019 493.381744,418.599121 488.380493,406.802338 
	C480.381409,387.934296 474.751923,368.301605 471.782623,348.032471 
	C464.986206,301.638336 476.724792,259.828369 503.859741,222.017975 
	C508.230499,215.927643 513.079956,210.252869 519.095947,205.658234 
	C521.647095,203.709778 524.391541,202.216156 527.439392,201.274734 
	C532.968933,199.566772 536.323608,201.932922 536.310181,207.680313 
	C536.298828,212.549377 534.280029,217.047089 533.386536,221.763184 
	C530.459900,237.210129 531.820557,252.424713 535.869995,267.451202 
	C537.769043,274.497986 540.185791,281.405212 542.473816,288.762512 
z"/>
<path fill="#000000" opacity="1.000000" stroke="none" 
	d="
M293.958984,567.385254 
	C258.670471,568.449829 228.252777,557.000610 201.460159,535.193542 
	C194.889587,529.845642 189.987717,523.135620 186.193954,515.667542 
	C184.737717,512.800903 183.219574,509.347839 186.111740,506.365204 
	C188.621719,503.776703 191.657043,504.543152 194.441727,505.968018 
	C219.301178,518.687500 244.107544,514.850220 268.763275,505.517975 
	C284.759796,499.463257 299.764374,490.934021 316.500610,486.669373 
	C343.482422,479.793976 369.493042,482.970001 394.785278,493.841431 
	C409.191528,500.033691 423.211456,506.988983 435.041107,517.542297 
	C438.170074,520.333740 442.776398,523.248657 440.926483,528.145691 
	C439.057037,533.094543 433.761017,531.004883 429.823822,531.371826 
	C413.537109,532.890137 397.734192,536.194153 382.607971,542.718872 
	C361.859222,551.669006 341.080444,560.672241 318.641754,564.691895 
	C310.656158,566.122559 302.634766,567.569397 293.958984,567.385254 
z"/>
<path fill="#000000" opacity="1.000000" stroke="none" 
	d="
M285.300232,720.291504 
	C299.869446,709.876709 310.165710,696.261536 318.375214,681.027588 
	C327.928619,663.299866 337.117096,645.411011 349.805756,629.571899 
	C362.274658,614.007141 377.364288,601.714783 394.687317,592.047485 
	C412.984619,581.836609 432.392487,574.671997 453.079865,571.106445 
	C454.384064,570.881592 455.710144,570.758606 457.031494,570.664124 
	C459.615112,570.479370 462.234192,570.674683 463.688202,573.117920 
	C465.274750,575.783936 464.147308,578.333862 462.354431,580.468323 
	C443.920227,602.414734 432.527985,628.403931 420.041565,653.785889 
	C411.346680,671.460693 401.531403,688.461731 387.539490,702.624512 
	C366.575836,723.844177 341.491943,737.264038 312.033020,742.446960 
	C300.280792,744.514648 288.655182,744.581177 277.053772,741.524658 
	C274.104706,740.747681 271.404053,739.468689 268.847076,737.943848 
	C264.620300,735.423035 264.642639,732.071838 268.955963,729.618286 
	C274.303986,726.576294 280.022552,724.187988 285.300232,720.291504 
z"/>
<path fill="#000000" opacity="1.000000" stroke="none" 
	d="
M576.198059,626.615845 
	C569.844604,610.659058 564.769653,594.738770 562.813416,577.975159 
	C562.603088,576.173035 562.607056,574.282715 562.899292,572.496704 
	C563.900696,566.377502 568.423462,564.568359 572.795105,568.995850 
	C589.604980,586.020630 610.772034,596.310974 631.332642,607.580811 
	C652.234314,619.037476 672.757690,631.087036 690.430115,647.329346 
	C712.047546,667.197449 725.243713,691.643677 729.156128,720.777893 
	C730.364502,729.775696 731.219238,738.963379 729.274780,748.053650 
	C728.548706,751.448059 728.126160,755.136414 723.852966,756.177551 
	C720.256287,757.053772 717.696289,755.410461 715.774597,752.585388 
	C700.276489,729.801514 678.310120,715.685425 653.191589,705.759277 
	C620.901611,692.999268 597.319946,670.882019 582.281677,639.622437 
	C580.262329,635.424927 578.338928,631.181213 576.198059,626.615845 
z"/>
<path fill="#000000" opacity="1.000000" stroke="none" 
	d="
M670.172546,561.358521 
	C644.357239,558.637024 622.339294,547.748474 601.604614,533.662476 
	C595.377258,529.432068 589.631592,524.681091 584.594788,519.075195 
	C583.035767,517.340088 582.128113,515.441284 583.079773,513.167175 
	C583.985596,511.002655 585.960632,510.525299 588.067200,510.627106 
	C617.216797,512.035828 644.517090,503.640778 671.834534,495.081879 
	C692.383606,488.643677 713.395874,484.292877 735.061951,485.764832 
	C770.737915,488.188507 802.413330,500.345673 828.279724,525.806213 
	C830.673523,528.162476 832.587402,530.890930 834.044128,533.905457 
	C836.623047,539.242310 834.277527,542.991272 828.284546,543.369446 
	C824.175659,543.628723 820.357178,542.161865 816.594727,541.075989 
	C790.311829,533.490784 765.419067,538.015137 740.888367,548.557556 
	C723.576233,555.997742 705.747070,561.630066 686.486511,561.574402 
	C681.204163,561.559143 675.921448,560.944824 670.172546,561.358521 
z"/>
<path fill="#000000" opacity="1.000000" stroke="none" 
	d="
M518.477783,603.573975 
	C524.832092,634.567444 534.889099,664.162170 541.729736,694.580627 
	C548.186951,723.294373 549.293396,751.842957 538.258301,779.784058 
	C531.840393,796.034302 522.726562,810.687500 510.307068,823.125427 
	C507.811768,825.624329 504.758301,827.404846 501.501160,828.704224 
	C498.769897,829.793762 495.807434,830.023010 493.481445,827.901794 
	C491.149109,825.774902 490.293457,823.023010 491.094177,819.736633 
	C493.214386,811.034851 495.267487,802.218323 495.463989,793.295959 
	C495.744110,780.572998 492.774048,768.270569 488.148010,756.419739 
	C482.354340,741.577698 475.095947,727.307983 471.566895,711.595093 
	C464.430176,679.819275 470.764740,650.367188 486.341553,622.397095 
	C492.107727,612.043274 498.748047,602.304932 506.522888,593.344421 
	C507.957947,591.690430 509.394501,590.093262 511.432526,589.193115 
	C514.650574,587.771851 516.694885,588.924744 517.232300,592.269226 
	C517.809814,595.863159 518.035767,599.513550 518.477783,603.573975 
z"/>
<path fill="#000000" opacity="1.000000" stroke="none" 
	d="
M532.820862,478.892761 
	C559.683594,492.850037 564.584900,526.766113 542.415527,546.828064 
	C530.223511,557.861023 515.474304,559.860229 500.052277,554.205750 
	C485.741425,548.958740 477.285706,538.516113 474.640259,523.490723 
	C470.298187,498.828827 486.451843,476.777008 514.092590,474.832031 
	C520.327209,474.393341 526.624451,476.091858 532.820862,478.892761 
z"/>
</svg>